<svg width="73" height="72" viewBox="0 0 73 72" fill="none" xmlns="http://www.w3.org/2000/svg">
<path opacity="0.4" d="M64.2498 27.45C62.7798 25.11 61.0998 23.01 59.3598 21.12L48.0498 32.43C48.4098 33.54 48.6198 34.74 48.6198 36C48.6198 42.72 43.1898 48.12 36.4998 48.12C35.2398 48.12 34.0398 47.91 32.9298 47.55L22.5498 57.93C26.9298 60.39 31.6698 61.68 36.4998 61.68C41.8398 61.68 47.0298 60.12 51.7698 57.21C56.5098 54.27 60.7698 49.98 64.2498 44.52C67.2498 39.84 67.2498 32.16 64.2498 27.45Z" fill="white"/>
<path d="M42.5599 29.94L30.4399 42.06C28.9099 40.5 27.9199 38.34 27.9199 36C27.9199 31.29 31.7599 27.42 36.4999 27.42C38.8399 27.42 40.9999 28.41 42.5599 29.94Z" fill="white"/>
<path opacity="0.4" d="M55.25 17.25L45.08 27.42C42.89 25.2 39.86 23.88 36.5 23.88C29.78 23.88 24.38 29.31 24.38 36C24.38 39.36 25.73 42.39 27.92 44.58L17.78 54.75H17.75C14.42 52.05 11.36 48.6 8.75 44.52C5.75 39.81 5.75 32.16 8.75 27.45C12.23 21.99 16.49 17.7 21.23 14.76C25.97 11.88 31.16 10.29 36.5 10.29C43.19 10.29 49.67 12.75 55.25 17.25Z" fill="white"/>
<path d="M45.0802 36C45.0802 40.71 41.2402 44.58 36.5002 44.58C36.3202 44.58 36.1702 44.58 35.9902 44.52L45.0202 35.49C45.0802 35.67 45.0802 35.82 45.0802 36Z" fill="white"/>
<path d="M65.8096 6.69001C64.9096 5.79001 63.4396 5.79001 62.5396 6.69001L7.18965 62.07C6.28965 62.97 6.28965 64.44 7.18965 65.34C7.63965 65.76 8.20965 66 8.80965 66C9.40965 66 9.97965 65.76 10.4296 65.31L65.8096 9.93001C66.7396 9.03001 66.7396 7.59001 65.8096 6.69001Z" fill="white"/>
</svg>
