<svg width="173" height="32" viewBox="0 0 173 32" fill="none" xmlns="http://www.w3.org/2000/svg">
<g clip-path="url(#clip0_1340_3319)">
<mask id="mask0_1340_3319" style="mask-type:luminance" maskUnits="userSpaceOnUse" x="0" y="0" width="173" height="32">
<path d="M0 0H173V32H0V0Z" fill="white"/>
</mask>
<g mask="url(#mask0_1340_3319)">
<path fill-rule="evenodd" clip-rule="evenodd" d="M173 10.7377H163.926C163.572 10.7377 163.278 10.7949 162.983 10.9657C162.689 11.0799 162.394 11.3083 162.158 11.5368C161.929 11.7651 161.748 12.0364 161.628 12.3348C161.51 12.6203 161.392 12.9625 161.392 13.3046C161.392 13.5326 161.451 13.8181 161.51 14.0461C161.569 14.2745 161.687 14.5024 161.864 14.7304C161.687 14.9017 161.569 15.1301 161.451 15.4147C161.333 15.6431 161.333 15.8715 161.333 16.0995V18.8377H163.455V15.8144H170.82V18.8372H173V10.7377ZM170.82 13.7039H163.455V12.7341H170.82V13.7039ZM143.538 10.6806L139.944 12.7341C139.59 12.9625 139.236 13.1333 139.001 13.3617C138.773 13.583 138.575 13.8321 138.412 14.1032V10.624H136.114V18.6669H138.412V15.2443C138.529 15.5299 138.706 15.8149 138.942 15.9862C139.178 16.1571 139.413 16.385 139.767 16.5563L143.538 18.6097H147.898L140.71 14.6171L147.839 10.6245H143.538V10.6806ZM134.994 10.6806H126.332C125.272 10.6806 124.506 10.9086 123.975 11.4221C123.445 11.9355 123.209 12.6774 123.209 13.6468V16.3279C123.209 16.6701 123.268 17.0122 123.445 17.2977C123.622 17.5828 123.798 17.8107 124.093 18.0392C124.329 18.2671 124.623 18.4379 124.977 18.5521C125.33 18.6664 125.625 18.7235 125.979 18.7235H135.053V16.7272H125.389V12.7345H135.053V10.6806H134.994ZM109.598 18.7235H122.561V16.6129H121.678V13.1904C121.678 12.8483 121.619 12.5061 121.442 12.2206C121.265 11.9355 121.088 11.6505 120.794 11.4792C120.558 11.2512 120.263 11.0804 119.91 10.9662C119.569 10.8493 119.21 10.7913 118.849 10.7949H112.839C112.486 10.7949 112.132 10.852 111.837 10.9662C111.484 11.0799 111.248 11.2512 110.953 11.4792C110.718 11.7076 110.482 11.9355 110.364 12.2777C110.246 12.5632 110.129 12.9054 110.129 13.2475V16.6701H109.539V18.7235H109.598ZM119.615 16.6129H112.132V12.8483H119.615V16.6129Z" fill="#DFDCE6"/>
<path fill-rule="evenodd" clip-rule="evenodd" d="M149.549 21.8613H98.9338L99.8763 20.0359H147.781L151.788 12.6207C151.965 12.2781 152.142 11.9364 152.318 11.708C152.482 11.4369 152.68 11.1877 152.908 10.9666C153.11 10.7692 153.35 10.614 153.615 10.5102C153.85 10.396 154.204 10.3389 154.499 10.3389C154.852 10.3389 155.147 10.396 155.382 10.5102C155.618 10.6239 155.854 10.7381 156.031 10.9666C155.736 10.8523 155.559 11.0803 155.323 11.4224L149.549 21.8613ZM45.1953 20.0359H57.2158L61.2223 12.6207C61.3993 12.2781 61.5758 11.9364 61.7528 11.708C61.916 11.437 62.1139 11.1878 62.3418 10.9666C62.544 10.7693 62.7845 10.6141 63.0488 10.5102C63.2848 10.396 63.6383 10.3389 63.9328 10.3389C64.2863 10.3389 64.5808 10.396 64.8168 10.5102C65.0523 10.6239 65.2883 10.7381 65.4648 10.9666C65.1703 10.8523 64.9933 11.0803 64.7578 11.4224L58.9833 21.8613H45.1953V20.0359ZM61.1633 20.0359H95.9283L99.9353 12.6207C100.112 12.2781 100.289 11.9364 100.466 11.708C100.629 11.437 100.827 11.1878 101.055 10.9666C101.257 10.7693 101.497 10.6141 101.762 10.5102C101.998 10.396 102.351 10.3389 102.646 10.3389C102.999 10.3389 103.294 10.396 103.53 10.5102C103.765 10.6239 104.001 10.7381 104.178 10.9666C103.883 10.8523 103.706 11.0803 103.471 11.4224L97.6963 21.8613H60.2798L61.1633 20.0359ZM151.788 20.0359H173.001V21.8613H150.845L151.788 20.0359Z" fill="#DFDCE6"/>
<path fill-rule="evenodd" clip-rule="evenodd" d="M160.626 18.7234L156.973 12.0496C156.737 11.6504 156.384 11.6504 156.148 12.0496L152.495 18.7234H160.626ZM85.9113 18.7805V12.734H93.4538V18.7805H95.6338V10.6805H83.7313V18.7805H85.9113ZM82.3763 10.6805H73.7148C72.6538 10.6805 71.8878 10.9085 71.3578 11.422C70.8273 11.9354 70.5918 12.6773 70.5918 13.6467V16.3278C70.5918 16.67 70.6503 17.0121 70.8273 17.2977C71.0043 17.5827 71.1808 17.8106 71.4753 18.0391C71.7113 18.267 72.0058 18.4378 72.3593 18.552C72.7128 18.6663 73.0073 18.7234 73.3608 18.7234H82.4353V16.7271H72.7718V12.7345H82.4353V10.6805H82.3763ZM70.0023 18.7234L66.3493 12.0496C66.1133 11.6504 65.7598 11.6504 65.5243 12.0496L61.8708 18.7234H70.0023ZM54.3873 10.6805H45.1953V18.7234H47.4343V15.7572H54.6228C54.9763 15.7572 55.3298 15.7001 55.6838 15.5293C56.0373 15.4151 56.3318 15.1866 56.5673 14.9582C56.8033 14.7303 57.0388 14.4452 57.1568 14.1602C57.2743 13.8746 57.3923 13.5325 57.3923 13.1903C57.3923 12.8482 57.3333 12.506 57.1568 12.1639C56.9798 11.8783 56.8033 11.5928 56.5083 11.3648C56.2138 11.1369 55.9193 10.9661 55.5658 10.8519C55.1533 10.7376 54.7998 10.6805 54.3873 10.6805ZM47.4343 12.734H55.1533V13.7609H47.4343V12.734ZM108.715 18.7234L105.062 12.0496C104.826 11.6504 104.473 11.6504 104.237 12.0496L100.584 18.7234H108.715Z" fill="#DFDCE6"/>
<path fill-rule="evenodd" clip-rule="evenodd" d="M20.1525 7.64329C19.681 6.44551 18.6205 6.50261 18.149 7.52908L12.021 19.0515C11.8445 19.4503 12.139 19.6216 12.551 19.6216H26.104C26.5165 19.6216 26.634 19.3366 26.4575 19.0515L20.1525 7.64329Z" fill="#DFDCE6"/>
<path fill-rule="evenodd" clip-rule="evenodd" d="M16.5575 31.0873C13.8467 31.0898 11.182 30.3968 8.8261 29.0765C6.47019 27.7562 4.5044 25.8542 3.1225 23.5579L8.3675 23.4437L17.5 6.38868C17.7945 5.98942 18.089 5.70437 18.4425 5.81809C18.207 5.59015 17.9125 5.36172 17.6175 5.24751C17.323 5.13378 16.9105 5.07668 16.498 5.07668C16.0855 5.07668 15.673 5.13378 15.3195 5.248C14.966 5.36172 14.6715 5.59015 14.436 5.81809C14.2 6.04652 13.9645 6.38868 13.7285 6.73083C13.4678 7.11528 13.2317 7.51531 13.0215 7.92862L6.246 20.6489L1.7675 20.8202C1.2223 19.2796 0.943434 17.66 0.9425 16.0286C0.9425 7.75778 7.9545 0.969846 16.4985 0.969846C25.0425 0.969846 32.055 7.75778 32.055 16.0286C32.114 24.2993 25.1015 31.0873 16.5575 31.0873ZM16.5575 0C7.425 0 0 7.1872 0 16.0286C0 24.8699 7.4245 32.0571 16.5575 32.0571C25.691 32.0571 33.115 24.8694 33.115 16.0286C33.056 7.18671 25.632 0 16.5575 0Z" fill="#DFDCE6"/>
</g>
</g>
<defs>
<clipPath id="clip0_1340_3319">
<rect width="173" height="32" fill="white"/>
</clipPath>
</defs>
</svg>
