<svg width="20" height="20" viewBox="0 0 20 20" xmlns="http://www.w3.org/2000/svg">
    <path fill-rule="evenodd" clip-rule="evenodd"
        d="M8.75 3C5.57436 3 3 5.57436 3 8.75C3 11.9256 5.57436 14.5 8.75 14.5C11.9256 14.5 14.5 11.9256 14.5 8.75C14.5 5.57436 11.9256 3 8.75 3ZM2 8.75C2 5.02208 5.02208 2 8.75 2C12.4779 2 15.5 5.02208 15.5 8.75C15.5 12.4779 12.4779 15.5 8.75 15.5C5.02208 15.5 2 12.4779 2 8.75Z" />
    <path fill-rule="evenodd" clip-rule="evenodd"
        d="M12.8164 12.8159C13.0116 12.6206 13.3282 12.6206 13.5235 12.8159L17.8539 17.1463C18.0492 17.3416 18.0492 17.6582 17.8539 17.8535C17.6587 18.0487 17.3421 18.0487 17.1468 17.8535L12.8164 13.523C12.6211 13.3277 12.6211 13.0111 12.8164 12.8159Z" />
</svg>