<svg width="20" height="20" viewBox="0 0 20 20" xmlns="http://www.w3.org/2000/svg">
    <path opacity="0.4"
        d="M17.6917 6.35023H13.075C12.7583 6.35023 12.5 6.09189 12.5 5.76689C12.5 5.45023 12.7583 5.19189 13.075 5.19189H17.6917C18.0083 5.19189 18.2667 5.45023 18.2667 5.76689C18.2667 6.09189 18.0083 6.35023 17.6917 6.35023Z" />
    <path opacity="0.4"
        d="M5.38242 6.3502H2.30742C1.99076 6.3502 1.73242 6.09186 1.73242 5.7752C1.73242 5.45853 1.99076 5.2002 2.30742 5.2002H5.38242C5.69909 5.2002 5.95742 5.45853 5.95742 5.7752C5.95742 6.09186 5.69909 6.3502 5.38242 6.3502Z" />
    <path
        d="M8.45807 9.03333C10.2622 9.03333 11.7247 7.5708 11.7247 5.76667C11.7247 3.96254 10.2622 2.5 8.45807 2.5C6.65394 2.5 5.19141 3.96254 5.19141 5.76667C5.19141 7.5708 6.65394 9.03333 8.45807 9.03333Z" />
    <path opacity="0.4"
        d="M17.691 14.8082H14.616C14.2993 14.8082 14.041 14.5499 14.041 14.2332C14.041 13.9165 14.2993 13.6582 14.616 13.6582H17.691C18.0077 13.6582 18.266 13.9165 18.266 14.2332C18.266 14.5499 18.0077 14.8082 17.691 14.8082Z" />
    <path opacity="0.4"
        d="M6.92409 14.8082H2.30742C1.99076 14.8082 1.73242 14.5499 1.73242 14.2332C1.73242 13.9165 1.99076 13.6582 2.30742 13.6582H6.92409C7.24076 13.6582 7.49909 13.9165 7.49909 14.2332C7.49909 14.5499 7.24076 14.8082 6.92409 14.8082Z" />
    <path
        d="M11.5401 17.5001C13.3442 17.5001 14.8068 16.0376 14.8068 14.2335C14.8068 12.4293 13.3442 10.9668 11.5401 10.9668C9.73597 10.9668 8.27344 12.4293 8.27344 14.2335C8.27344 16.0376 9.73597 17.5001 11.5401 17.5001Z" />
</svg>